<svg width="50" height="51" viewBox="0 0 50 51" fill="none" xmlns="http://www.w3.org/2000/svg">
<path fill-rule="evenodd" clip-rule="evenodd" d="M25 51C38.8071 51 50 39.5833 50 25.5C50 11.4167 38.8071 0 25 0C11.1929 0 0 11.4167 0 25.5C0 39.5833 11.1929 51 25 51Z" fill="#1DA1F2"/>
<path fill-rule="evenodd" clip-rule="evenodd" d="M33.979 20.3628C33.9532 20.3321 33.9106 20.3217 33.8743 20.3385C33.3361 20.5794 32.77 20.7527 32.1869 20.8551C32.8059 20.385 33.2672 19.734 33.5037 18.9876C33.5151 18.9519 33.5033 18.9128 33.4744 18.8895C33.4453 18.8663 33.4049 18.8633 33.373 18.8825C32.6758 19.2999 31.9206 19.5941 31.1276 19.7573C30.4248 19.0211 29.4435 18.6 28.4278 18.6C26.3623 18.6 24.6821 20.296 24.6821 22.3808C24.6821 22.633 24.7063 22.8827 24.7542 23.1252C21.8934 22.9469 19.2184 21.5605 17.3995 19.3086C17.3809 19.2855 17.3527 19.2727 17.3232 19.2757C17.2939 19.2779 17.2677 19.2947 17.2529 19.3202C16.9211 19.8948 16.7458 20.5523 16.7458 21.2211C16.7458 22.3803 17.2675 23.4641 18.1559 24.1792C17.6985 24.1238 17.2518 23.9784 16.849 23.7527C16.8219 23.7373 16.7882 23.7375 16.7611 23.7533C16.734 23.7689 16.7168 23.7979 16.7161 23.8296L16.7157 23.878C16.7157 25.5427 17.8025 27.0045 19.3487 27.4898C18.9415 27.5561 18.5189 27.5516 18.1036 27.4716C18.073 27.4658 18.0409 27.4764 18.0199 27.5003C17.999 27.5241 17.992 27.5574 18.0016 27.5875C18.4653 29.0484 19.7535 30.0728 21.2531 30.2005C20.0022 31.1255 18.5237 31.6129 16.9615 31.6129C16.6737 31.6129 16.3839 31.5956 16.1 31.5619C16.0594 31.5573 16.0192 31.5817 16.0052 31.6209C15.9912 31.6606 16.0061 31.7049 16.0412 31.7274C17.7317 32.8218 19.6864 33.4 21.6943 33.4C28.2619 33.4 32.1865 28.0148 32.1865 22.8087C32.1865 22.6637 32.1837 22.5195 32.178 22.3756C32.8865 21.8525 33.4947 21.2122 33.9851 20.471C34.007 20.4378 34.0046 20.3937 33.979 20.3628Z" fill="white"/>
</svg>
